<svg id="Capa_1" enable-background="new 0 0 512 512" height="512" viewBox="0 0 512 512" width="512" xmlns="http://www.w3.org/2000/svg"><path d="m507.607 164.973-160.58-160.579c-5.857-5.858-15.355-5.858-21.213 0s-5.858 15.355 0 21.213l36.408 36.408-25.975 25.975 87.763 87.763 25.975-25.975 36.408 36.408c2.929 2.929 6.768 4.394 10.606 4.394s7.678-1.464 10.606-4.394c5.859-5.858 5.859-15.355.002-21.213z"/><path d="m315.034 109.203-10.164-10.164c-3.375-3.375-7.273-5.906-11.434-7.593s-8.584-2.531-13.007-2.531-8.846.844-13.007 2.531-8.06 4.218-11.434 7.593l-179.444 179.444c-1.265 1.265-2.412 2.605-3.44 4.004-.685.933-1.318 1.892-1.898 2.874-.29.491-.567.987-.83 1.489-5.273 10.034-5.273 22.115 0 32.148.264.502.54.998.83 1.489.58.982 1.213 1.941 1.898 2.874 1.028 1.399 2.175 2.738 3.44 4.004l14.803 14.803 78.487 78.487 14.803 14.803c2.109 2.109 4.423 3.889 6.878 5.339.982.58 1.986 1.107 3.009 1.582 12.785 5.932 28.449 3.625 38.995-6.921l14.899-14.899-49.232-49.232c-5.858-5.858-5.858-15.355 0-21.213 5.857-5.858 15.355-5.858 21.213 0l49.232 49.232 21.598-21.598-49.232-49.232c-5.858-5.858-5.858-15.355 0-21.213 5.857-5.858 15.355-5.858 21.213 0l49.232 49.232 10.799-10.799 10.799-10.799-49.232-49.232c-5.858-5.858-5.858-15.355 0-21.213 5.857-5.858 15.355-5.858 21.213 0l49.232 49.232 21.598-21.598-49.232-49.232c-5.858-5.858-5.858-15.355 0-21.213 5.857-5.858 15.355-5.858 21.213 0l49.232 49.232 14.899-14.899c.206-.206.398-.419.597-.628.43-.451.845-.911 1.245-1.38.557-.652 1.096-1.314 1.598-1.996.685-.933 1.318-1.892 1.898-2.874s1.107-1.986 1.582-3.009c1.424-3.068 2.373-6.303 2.847-9.592.474-3.29.474-6.635 0-9.924-1.028-7.127-4.284-13.995-9.768-19.479l-10.165-10.165z"/><path d="m59.527 352.774-10.895 10.895c-13.717 13.717-13.717 36.037 0 49.754l14.366 14.366-58.604 58.605c-5.858 5.858-5.858 15.355 0 21.213 2.928 2.929 6.767 4.393 10.606 4.393s7.678-1.464 10.606-4.394l58.605-58.605 14.366 14.366c6.859 6.86 15.867 10.288 24.877 10.288 9.008 0 18.019-3.43 24.877-10.288l10.895-10.895z"/></svg>